<mxfile host="app.diagrams.net" modified="2023-11-14T00:49:19.962Z" agent="Mozilla/5.0 (Windows NT 10.0; Win64; x64) AppleWebKit/537.36 (KHTML, like Gecko) Chrome/119.0.0.0 Safari/537.36 Edg/119.0.0.0" version="22.1.0" etag="pGbTX-X8oqTfB4u4qS0U" type="github">
  <diagram name="第 1 页" id="eOjE1J2u7dkAPd_yK7j6">
    <mxGraphModel>
      <root>
        <mxCell id="0" />
        <mxCell id="1" parent="0" />
      </root>
    </mxGraphModel>
  </diagram>
</mxfile>
